<svg width="833" height="839" viewBox="0 0 833 839" fill="none" xmlns="http://www.w3.org/2000/svg">
<g clip-path="url(#clip0_11_8)">
<path d="M767.779 607.899C762.572 613.143 755.978 615.59 749.383 615.59C742.789 615.59 736.194 613.143 730.988 607.899L559.182 434.855L577.577 416.327L595.972 397.796L767.779 570.84C777.844 580.978 777.844 597.761 767.779 607.899Z" fill="#292D32"/>
<path d="M700.115 298.462L567.876 431.304C553.993 445.287 531.779 445.287 517.896 431.304L317.281 229.244C303.397 215.261 303.397 192.887 317.281 178.904L449.521 45.7128C476.94 18.0957 521.714 18.0957 549.481 45.7128L700.115 197.432C727.534 225.399 727.534 270.145 700.115 298.462Z" fill="#292D32"/>
<path d="M279.435 266.595L480.744 469.352C494.28 482.986 494.28 505.01 480.744 518.643L449.507 550.456C421.393 578.422 376.966 578.422 349.199 550.456L198.565 398.736C171.145 371.119 171.145 326.023 198.565 298.056L230.149 266.246C243.686 252.962 265.899 252.962 279.435 266.595Z" fill="#292D32"/>
<path d="M333.281 760.437H125.031C110.801 760.437 99 748.552 99 734.219C99 719.886 110.801 708 125.031 708H333.281C347.512 708 359.312 719.886 359.312 734.219C359.312 748.552 347.512 760.437 333.281 760.437Z" fill="#292D32"/>
<path d="M394.913 839.437H62.5459C39.8341 839.437 21 827.552 21 813.219C21 798.886 39.8341 787 62.5459 787H394.913C417.625 787 436.459 798.886 436.459 813.219C436.459 827.552 417.625 839.437 394.913 839.437Z" fill="#292D32"/>
</g>
<defs>
<clipPath id="clip0_11_8">
<rect width="833" height="839" fill="white"/>
</clipPath>
</defs>
</svg>
